<?xml version="1.0" encoding="UTF-8" standalone="no"?>
<svg
   xmlns:dc="http://purl.org/dc/elements/1.1/"
   xmlns:cc="http://creativecommons.org/ns#"
   xmlns:rdf="http://www.w3.org/1999/02/22-rdf-syntax-ns#"
   xmlns:svg="http://www.w3.org/2000/svg"
   xmlns="http://www.w3.org/2000/svg"
   version="1.1"
   id="svg3363"
   viewBox="0 0 32 32.000001"
   height="32"
   width="32">
  <defs
     id="defs3365" />
  <metadata
     id="metadata3368">
    <rdf:RDF>
      <cc:Work
         rdf:about="">
        <dc:format>image/svg+xml</dc:format>
        <dc:type
           rdf:resource="http://purl.org/dc/dcmitype/StillImage" />
        <dc:title></dc:title>
      </cc:Work>
    </rdf:RDF>
  </metadata>
  <g
     transform="translate(-129.71423,-643.42128)"
     id="layer1">
    <path
       id="path3351"
       d="m 133.64481,671.3808 c -7.5e-4,-0.023 -7.9e-4,-0.8624 -6e-5,-1.8665 7e-4,-1.0041 -0.0183,-1.8559 -0.0423,-1.893 -0.0329,-0.051 -0.50822,-0.071 -1.94821,-0.082 l -1.90467,-0.014 -0.0162,-0.4358 c -0.0271,-0.7313 -0.24813,-0.6566 1.88798,-0.6385 1.64307,0.014 1.85922,0.01 1.93739,-0.072 0.0803,-0.08 0.0879,-0.8779 0.0869,-9.1167 l -10e-4,-9.0286 0.54572,-0.015 0.54572,-0.016 0,9.0971 c 0,8.2821 0.008,9.1001 0.087,9.1305 0.0479,0.018 6.11141,0.033 13.47453,0.032 l 13.38747,-10e-4 0,0.532 0,0.532 -13.46089,0.027 -13.4609,0.027 -0.0143,1.921 -0.0143,1.921 -0.54428,0 c -0.29936,0 -0.54489,-0.018 -0.54564,-0.041 z m 26.54167,-8.8413 c -0.59255,-0.046 -0.91079,-0.1206 -1.42864,-0.3332 -0.37316,-0.1533 -0.94912,-0.5106 -1.30147,-0.8074 l -0.19598,-0.1652 -0.26725,0.1709 c -0.34342,0.2193 -1.15547,0.6012 -1.5752,0.7406 -1.82482,0.6061 -3.68493,0.4945 -5.40854,-0.3244 -0.69655,-0.3308 -1.40667,-0.8355 -1.97859,-1.406 -1.37916,-1.3757 -2.11854,-3.1378 -2.12162,-5.056 -0.003,-1.9814 0.78404,-3.828 2.21338,-5.1919 1.29927,-1.2397 2.9099,-1.9247 4.70223,-1.9996 1.85577,-0.078 3.5091,0.4918 4.97938,1.7149 0.61728,0.5134 1.2477,1.2942 1.68297,2.0842 0.16249,0.2949 0.50246,1.141 0.58026,1.4442 0.0308,0.1198 0.0806,0.316 0.11066,0.4359 0.0301,0.1199 0.0841,0.4921 0.11993,0.8272 0.15196,1.4192 -0.23017,3.1069 -0.97907,4.324 l -0.15937,0.259 0.1456,0.1393 c 0.0801,0.077 0.29129,0.2059 0.46935,0.2873 0.2936,0.1343 0.39897,0.1505 1.13176,0.1741 l 0.80801,0.026 -0.0146,1.3414 -0.0146,1.3412 -0.49047,0.01 c -0.26977,0 -0.72346,-0.011 -1.00821,-0.034 z m -6.17523,-2.8103 c 0.20418,-0.047 0.45707,-0.1139 0.56198,-0.1498 0.32185,-0.1098 0.92646,-0.4152 0.92646,-0.4678 0,-0.079 -0.66709,-0.8834 -0.92486,-1.1158 -0.12836,-0.1158 -0.38546,-0.2816 -0.57132,-0.3686 -0.285,-0.1334 -0.43332,-0.1636 -0.94681,-0.193 l -0.60887,-0.035 0,-1.3269 0,-1.3268 0.58585,5e-4 c 1.54068,0 2.48352,0.4005 3.62399,1.5354 0.71776,0.7143 0.66946,0.7087 0.83662,0.098 0.13302,-0.4862 0.13427,-1.6394 0.002,-2.0968 -0.40209,-1.3932 -1.23575,-2.4104 -2.4419,-2.9796 -0.37587,-0.1774 -0.50438,-0.222 -1.05998,-0.3676 -0.37795,-0.099 -1.46217,-0.072 -1.94162,0.049 -2.0451,0.5153 -3.42007,2.2685 -3.42007,4.3606 0,2.1357 1.45248,3.9204 3.56959,4.386 0.45974,0.1011 1.36138,0.1002 1.80866,0 z m -15.36896,2.7737 c -0.0457,-0.046 -0.0493,-2.4842 -0.004,-2.6028 0.0274,-0.071 0.1355,-0.086 0.6248,-0.086 0.52924,0 0.59768,-0.011 0.64814,-0.1054 0.0782,-0.1461 0.0782,-8.5806 0,-8.7267 -0.0502,-0.094 -0.11858,-0.1054 -0.62005,-0.1054 -0.41176,0 -0.58039,-0.02 -0.62582,-0.075 -0.0436,-0.053 -0.0578,-0.4549 -0.0476,-1.3488 l 0.0146,-1.2739 2.69762,0 2.69763,0 0.0146,1.3041 c 0.0113,1.0069 -0.001,1.3141 -0.0545,1.348 -0.038,0.024 -0.31964,0.044 -0.62581,0.045 -0.49411,7e-4 -0.56302,0.013 -0.6131,0.1062 -0.0738,0.138 -0.077,8.6061 -0.003,8.7231 0.039,0.062 0.2011,0.088 0.66676,0.109 l 0.61525,0.027 0,1.3352 0,1.335 -2.67441,0.014 c -1.47093,0.01 -2.69099,0 -2.71125,-0.023 z"
       style="fill:#000000" />
  </g>
</svg>
